<svg width="216" height="205" viewBox="0 0 216 205" fill="none" xmlns="http://www.w3.org/2000/svg">
<g clip-path="url(#clip0)">
<path d="M130.737 11.5013L18.2031 35.5723L51.5646 190.576L164.098 166.505L130.737 11.5013Z" fill="#E0E0E0"/>
<g opacity="0.5">
<path opacity="0.5" d="M129.401 14.5297L20.6709 37.7871L52.9047 187.552L161.635 164.294L129.401 14.5297Z" fill="url(#paint0_linear)"/>
</g>
<path d="M128.253 15.9265L22.291 38.5918L53.8127 185.047L159.775 162.382L128.253 15.9265Z" fill="#FAFAFA"/>
<path d="M100.328 15.2599L47.7617 26.5039L50.4939 39.198L103.06 27.954L100.328 15.2599Z" fill="url(#paint1_linear)"/>
<path d="M71.3735 8.48304C67.3151 9.35207 64.7473 13.4137 65.6401 17.5541C66.5329 21.6945 70.5439 24.3514 74.5945 23.4824C78.645 22.6134 81.2207 18.5518 80.3279 14.4114C79.4351 10.271 75.432 7.61401 71.3735 8.48304ZM73.9203 20.324C73.0625 20.5279 72.1633 20.4726 71.3372 20.1651C70.5111 19.8577 69.7955 19.312 69.2817 18.5976C68.7679 17.8832 68.479 17.0325 68.452 16.1539C68.4249 15.2752 68.661 14.4084 69.1299 13.664C69.5989 12.9196 70.2795 12.3312 71.0852 11.9738C71.8908 11.6165 72.785 11.5064 73.6536 11.6575C74.5223 11.8086 75.3261 12.2142 75.9627 12.8225C76.5993 13.4307 77.0398 14.2142 77.2281 15.073C77.3582 15.6344 77.3757 16.2158 77.2797 16.784C77.1837 17.3522 76.9761 17.8958 76.6687 18.3837C76.3614 18.8717 75.9603 19.2942 75.4887 19.6272C75.017 19.9602 74.484 20.1969 73.9203 20.324V20.324Z" fill="url(#paint2_linear)"/>
<path d="M99.6566 14.8327L48.1973 25.8398L50.809 37.9743L102.268 26.9672L99.6566 14.8327Z" fill="#4C84FF"/>
<path d="M71.3736 8.4836C69.9512 8.78795 68.6513 9.50594 67.6382 10.5468C66.6251 11.5876 65.9444 12.9046 65.6821 14.3311C65.4198 15.7576 65.5877 17.2296 66.1645 18.561C66.7414 19.8924 67.7013 21.0234 68.9229 21.8109C70.1446 22.5984 71.573 23.0072 73.0276 22.9854C74.4822 22.9636 75.8977 22.5124 77.0951 21.6887C78.2924 20.8649 79.2179 19.7058 79.7544 18.3577C80.291 17.0097 80.4145 15.5333 80.1094 14.1153C79.9067 13.1736 79.5201 12.281 78.9714 11.4884C78.4227 10.6957 77.7228 10.0186 76.9116 9.49564C76.1004 8.97269 75.1938 8.61415 74.2436 8.4405C73.2934 8.26685 72.3181 8.2815 71.3736 8.4836V8.4836ZM73.8071 19.7994C72.9861 19.975 72.1313 19.904 71.3507 19.5953C70.5702 19.2866 69.8991 18.754 69.4222 18.0651C68.9453 17.3761 68.684 16.5616 68.6715 15.7246C68.6589 14.8876 68.8957 14.0656 69.3517 13.3628C69.8077 12.6599 70.4626 12.1076 71.2335 11.7758C72.0045 11.4439 72.8568 11.3475 73.6827 11.4986C74.5086 11.6497 75.271 12.0415 75.8735 12.6246C76.476 13.2076 76.8915 13.9557 77.0675 14.7742C77.3035 15.8716 77.0926 17.0175 76.4811 17.9599C75.8697 18.9023 74.9078 19.564 73.8071 19.7994V19.7994Z" fill="#4C84FF"/>
<path d="M183.014 30.6953H67.9189V189.227H183.014V30.6953Z" fill="#E0E0E0"/>
<g opacity="0.5">
<path opacity="0.5" d="M181.07 33.375H69.8652V186.548H181.07V33.375Z" fill="url(#paint3_linear)"/>
</g>
<path d="M179.653 34.5039H71.2793V184.293H179.653V34.5039Z" fill="white"/>
<path d="M152.49 28.0098H98.7266V40.9928H152.49V28.0098Z" fill="url(#paint4_linear)"/>
<path d="M125.608 15.3359C121.458 15.3359 118.092 18.7701 118.092 23.0076C118.092 27.2451 121.458 30.6792 125.608 30.6792C129.759 30.6792 133.125 27.2451 133.125 23.0076C133.125 18.7701 129.759 15.3359 125.608 15.3359ZM125.608 27.4341C124.726 27.455 123.857 27.2133 123.113 26.7397C122.369 26.2662 121.784 25.5824 121.432 24.7756C121.079 23.9688 120.976 23.0757 121.135 22.2102C121.295 21.3447 121.709 20.5462 122.326 19.9166C122.942 19.287 123.733 18.8548 124.597 18.6753C125.461 18.4959 126.359 18.5772 127.177 18.9089C127.994 19.2406 128.694 19.8077 129.187 20.5378C129.68 21.2678 129.943 22.1277 129.943 23.0076C129.952 24.1641 129.5 25.2768 128.688 26.1024C127.876 26.928 126.768 27.3993 125.608 27.4131V27.4341Z" fill="url(#paint5_linear)"/>
<path d="M151.924 27.4512H99.2939V39.8618H151.924V27.4512Z" fill="#4C84FF"/>
<path d="M125.609 15.3359C124.154 15.3359 122.732 15.766 121.522 16.5718C120.312 17.3775 119.37 18.5228 118.813 19.8627C118.256 21.2026 118.11 22.677 118.394 24.0995C118.678 25.5219 119.379 26.8286 120.407 27.8541C121.436 28.8796 122.747 29.578 124.174 29.861C125.601 30.1439 127.08 29.9987 128.424 29.4437C129.768 28.8887 130.917 27.9488 131.725 26.7429C132.533 25.537 132.964 24.1192 132.964 22.6689C132.964 20.7241 132.189 18.8589 130.81 17.4837C129.431 16.1085 127.56 15.3359 125.609 15.3359ZM125.609 26.9012C124.77 26.9001 123.95 26.6513 123.253 26.1861C122.555 25.7209 122.012 25.0601 121.691 24.2873C121.37 23.5145 121.286 22.6642 121.45 21.8439C121.614 21.0235 122.017 20.2699 122.61 19.6781C123.203 19.0863 123.959 18.6829 124.781 18.5189C125.604 18.3548 126.457 18.4374 127.233 18.7563C128.008 19.0752 128.672 19.616 129.139 20.3105C129.607 21.005 129.857 21.822 129.859 22.6584C129.859 23.2144 129.749 23.7649 129.535 24.2784C129.321 24.792 129.008 25.2584 128.613 25.6512C128.218 26.044 127.75 26.3554 127.234 26.5676C126.719 26.7799 126.166 26.8887 125.609 26.888V26.9012Z" fill="#4C84FF"/>
<g opacity="0.5">
<path opacity="0.5" d="M5.01173 193.51H4.02148V199.11H5.01173V193.51Z" fill="#47E6B1"/>
<path opacity="0.5" d="M7.32617 196.806V195.818H1.70865V196.806H7.32617Z" fill="#47E6B1"/>
</g>
<g opacity="0.5">
<path opacity="0.5" d="M119.896 0H118.906V5.60015H119.896V0Z" fill="#47E6B1"/>
<path opacity="0.5" d="M122.211 3.29381V2.30664L116.593 2.30664V3.29381L122.211 3.29381Z" fill="#47E6B1"/>
</g>
<path opacity="0.5" d="M203.075 202.833C202.802 202.714 202.582 202.5 202.457 202.23C202.332 201.961 202.311 201.655 202.398 201.371C202.412 201.327 202.421 201.282 202.424 201.237V201.237C202.432 201.107 202.398 200.978 202.326 200.869C202.255 200.759 202.15 200.676 202.027 200.631C201.905 200.586 201.771 200.582 201.646 200.618C201.52 200.655 201.41 200.731 201.331 200.835V200.835C201.304 200.872 201.281 200.911 201.263 200.953C201.144 201.225 200.929 201.445 200.658 201.569C200.388 201.693 200.081 201.714 199.796 201.628C199.752 201.614 199.707 201.605 199.662 201.602V201.602C199.531 201.594 199.402 201.628 199.292 201.699C199.183 201.771 199.099 201.875 199.054 201.997C199.009 202.119 199.004 202.253 199.041 202.378C199.078 202.503 199.154 202.613 199.259 202.691V202.691C199.295 202.719 199.335 202.741 199.377 202.759C199.65 202.878 199.87 203.092 199.995 203.362C200.12 203.632 200.141 203.938 200.054 204.222C200.04 204.265 200.031 204.31 200.028 204.356V204.356C200.02 204.486 200.054 204.615 200.126 204.724C200.197 204.833 200.302 204.916 200.424 204.961C200.547 205.006 200.681 205.011 200.806 204.974C200.932 204.937 201.042 204.861 201.121 204.757V204.757C201.148 204.721 201.171 204.681 201.189 204.639C201.308 204.367 201.523 204.148 201.794 204.023C202.064 203.899 202.371 203.878 202.656 203.965C202.7 203.979 202.745 203.987 202.79 203.991C202.921 203.999 203.05 203.964 203.16 203.893C203.269 203.822 203.353 203.717 203.398 203.595C203.443 203.473 203.447 203.34 203.411 203.215C203.374 203.09 203.298 202.98 203.193 202.901V202.901C203.157 202.874 203.117 202.851 203.075 202.833V202.833Z" fill="#4D8AF0"/>
<path opacity="0.5" d="M35.9937 148.997C35.7206 148.879 35.5007 148.664 35.3759 148.394C35.2511 148.125 35.2301 147.819 35.3168 147.535C35.3309 147.491 35.3397 147.446 35.3432 147.401V147.401C35.351 147.271 35.3167 147.142 35.2452 147.033C35.1738 146.924 35.069 146.84 34.9464 146.795C34.8238 146.75 34.6899 146.746 34.5645 146.782C34.4391 146.819 34.3289 146.895 34.2502 146.999V146.999C34.2228 147.036 34.1999 147.075 34.1817 147.117C34.0629 147.39 33.8477 147.609 33.5772 147.733C33.3067 147.858 32.9998 147.878 32.7148 147.792C32.6712 147.778 32.6262 147.769 32.5805 147.766V147.766C32.4501 147.758 32.3206 147.792 32.2112 147.863C32.1018 147.935 32.0183 148.039 31.9731 148.161C31.9279 148.284 31.9234 148.417 31.9602 148.542C31.997 148.667 32.0732 148.777 32.1776 148.855V148.855C32.2142 148.883 32.254 148.906 32.2961 148.924C32.5692 149.042 32.7891 149.257 32.9139 149.526C33.0387 149.796 33.0597 150.102 32.9729 150.386C32.9589 150.429 32.9501 150.474 32.9466 150.52C32.9387 150.65 32.9731 150.779 33.0445 150.888C33.116 150.997 33.2208 151.08 33.3434 151.125C33.466 151.17 33.5999 151.175 33.7253 151.138C33.8507 151.102 33.9608 151.026 34.0395 150.922V150.922C34.0669 150.885 34.0899 150.845 34.108 150.803C34.2269 150.531 34.4421 150.312 34.7126 150.187C34.983 150.063 35.29 150.042 35.5749 150.129C35.6185 150.143 35.6636 150.151 35.7093 150.155C35.8397 150.163 35.9692 150.129 36.0786 150.057C36.188 149.986 36.2715 149.882 36.3167 149.759C36.3619 149.637 36.3664 149.504 36.3296 149.379C36.2927 149.254 36.2165 149.144 36.1122 149.065V149.065C36.0755 149.038 36.0357 149.015 35.9937 148.997Z" fill="#FDD835"/>
<path opacity="0.5" d="M175.158 17.9014C174.885 17.7828 174.665 17.5683 174.54 17.2987C174.415 17.029 174.394 16.7231 174.481 16.439C174.495 16.3955 174.504 16.3506 174.507 16.3051C174.515 16.175 174.481 16.0459 174.409 15.9369C174.338 15.8278 174.233 15.7446 174.11 15.6995C173.988 15.6545 173.854 15.65 173.729 15.6867C173.603 15.7234 173.493 15.7994 173.414 15.9034V15.9034C173.387 15.9399 173.364 15.9796 173.346 16.0215C173.227 16.2938 173.012 16.513 172.741 16.6374C172.471 16.7618 172.164 16.7828 171.879 16.6963C171.835 16.6823 171.79 16.6735 171.745 16.67V16.67C171.614 16.6622 171.485 16.6964 171.375 16.7677C171.266 16.8389 171.182 16.9434 171.137 17.0656C171.092 17.1878 171.087 17.3213 171.124 17.4463C171.161 17.5713 171.237 17.6811 171.342 17.7596V17.7596C171.378 17.7869 171.418 17.8098 171.46 17.8278C171.733 17.9464 171.953 18.1609 172.078 18.4305C172.203 18.7002 172.224 19.0061 172.137 19.2902C172.123 19.3337 172.114 19.3786 172.111 19.4241V19.4241C172.103 19.5542 172.137 19.6833 172.209 19.7923C172.28 19.9014 172.385 19.9846 172.507 20.0297C172.63 20.0747 172.764 20.0792 172.889 20.0425C173.015 20.0058 173.125 19.9298 173.204 19.8258V19.8258C173.231 19.7893 173.254 19.7496 173.272 19.7077C173.391 19.4354 173.606 19.2162 173.877 19.0918C174.147 18.9674 174.454 18.9464 174.739 19.0329C174.783 19.0469 174.828 19.0557 174.873 19.0592C175.004 19.067 175.133 19.0328 175.243 18.9615C175.352 18.8903 175.436 18.7858 175.481 18.6636C175.526 18.5414 175.53 18.4079 175.494 18.2829C175.457 18.1579 175.381 18.0481 175.276 17.9696V17.9696C175.24 17.9423 175.2 17.9194 175.158 17.9014V17.9014Z" fill="#FDD835"/>
<path opacity="0.5" d="M214.019 84.5399C215.115 84.5399 216.002 83.6548 216.002 82.5629C216.002 81.4711 215.115 80.5859 214.019 80.5859C212.924 80.5859 212.036 81.4711 212.036 82.5629C212.036 83.6548 212.924 84.5399 214.019 84.5399Z" fill="#F55F44"/>
<path opacity="0.5" d="M60.7654 198.009C61.8606 198.009 62.7485 197.124 62.7485 196.032C62.7485 194.94 61.8606 194.055 60.7654 194.055C59.6701 194.055 58.7822 194.94 58.7822 196.032C58.7822 197.124 59.6701 198.009 60.7654 198.009Z" fill="#F55F44"/>
<path opacity="0.5" d="M193.653 127.272C194.748 127.272 195.636 126.387 195.636 125.295C195.636 124.203 194.748 123.318 193.653 123.318C192.558 123.318 191.67 124.203 191.67 125.295C191.67 126.387 192.558 127.272 193.653 127.272Z" fill="#F55F44"/>
<path opacity="0.5" d="M22.9489 27.2723C24.0442 27.2723 24.9321 26.3872 24.9321 25.2953C24.9321 24.2035 24.0442 23.3184 22.9489 23.3184C21.8537 23.3184 20.9658 24.2035 20.9658 25.2953C20.9658 26.3872 21.8537 27.2723 22.9489 27.2723Z" fill="#4D8AF0"/>
<path opacity="0.5" d="M1.98313 81.204C3.07837 81.204 3.96625 80.3188 3.96625 79.227C3.96625 78.1351 3.07837 77.25 1.98313 77.25C0.887875 77.25 0 78.1351 0 79.227C0 80.3188 0.887875 81.204 1.98313 81.204Z" fill="#47E6B1"/>
</g>
<defs>
<linearGradient id="paint0_linear" x1="107.269" y1="175.923" x2="75.2254" y2="26.1179" gradientUnits="userSpaceOnUse">
<stop stop-color="#808080" stop-opacity="0.25"/>
<stop offset="0.54" stop-color="#808080" stop-opacity="0.12"/>
<stop offset="1" stop-color="#808080" stop-opacity="0.1"/>
</linearGradient>
<linearGradient id="paint1_linear" x1="28919" y1="-3754.14" x2="28784.7" y2="-4382.04" gradientUnits="userSpaceOnUse">
<stop stop-color="#808080" stop-opacity="0.25"/>
<stop offset="0.54" stop-color="#808080" stop-opacity="0.12"/>
<stop offset="1" stop-color="#808080" stop-opacity="0.1"/>
</linearGradient>
<linearGradient id="paint2_linear" x1="8444.41" y1="428.207" x2="8257.04" y2="-447.757" gradientUnits="userSpaceOnUse">
<stop stop-color="#808080" stop-opacity="0.25"/>
<stop offset="0.54" stop-color="#808080" stop-opacity="0.12"/>
<stop offset="1" stop-color="#808080" stop-opacity="0.1"/>
</linearGradient>
<linearGradient id="paint3_linear" x1="53048" y1="108867" x2="53048" y2="19504.7" gradientUnits="userSpaceOnUse">
<stop stop-color="#808080" stop-opacity="0.25"/>
<stop offset="0.54" stop-color="#808080" stop-opacity="0.12"/>
<stop offset="1" stop-color="#808080" stop-opacity="0.1"/>
</linearGradient>
<linearGradient id="paint4_linear" x1="25740.4" y1="2055.05" x2="25740.4" y2="1413.04" gradientUnits="userSpaceOnUse">
<stop stop-color="#808080" stop-opacity="0.25"/>
<stop offset="0.54" stop-color="#808080" stop-opacity="0.12"/>
<stop offset="1" stop-color="#808080" stop-opacity="0.1"/>
</linearGradient>
<linearGradient id="paint5_linear" x1="10142.9" y1="2721.74" x2="10142.9" y2="1825.08" gradientUnits="userSpaceOnUse">
<stop stop-color="#808080" stop-opacity="0.25"/>
<stop offset="0.54" stop-color="#808080" stop-opacity="0.12"/>
<stop offset="1" stop-color="#808080" stop-opacity="0.1"/>
</linearGradient>
<clipPath id="clip0">
<rect width="216" height="205" fill="white"/>
</clipPath>
</defs>
</svg>
