<svg width="20" height="20" viewBox="0 0 20 20" fill="none" xmlns="http://www.w3.org/2000/svg">
<path d="M16.3643 10.0002L11.9535 14.4109C11.6281 14.7363 11.6281 15.264 11.9535 15.5894C12.2789 15.9149 12.8066 15.9149 13.132 15.5894L18.132 10.5894C18.4575 10.264 18.4575 9.73634 18.132 9.41091L13.132 4.41091C12.8066 4.08547 12.2789 4.08547 11.9535 4.41091C11.6281 4.73634 11.6281 5.26398 11.9535 5.58942L16.3643 10.0002Z" fill="#838895"/>
<path d="M2.54277 10.8335L16.7094 10.8335C17.1697 10.8335 17.5428 10.4604 17.5428 10.0002C17.5428 9.53993 17.1697 9.16683 16.7094 9.16683L2.54277 9.16683C2.08253 9.16683 1.70943 9.53992 1.70943 10.0002C1.70943 10.4604 2.08253 10.8335 2.54277 10.8335Z" fill="#838895"/>
<path d="M17.5428 9.16683L16.7094 9.16683C16.2492 9.16683 15.8761 9.53993 15.8761 10.0002C15.8761 10.4604 16.2492 10.8335 16.7094 10.8335L17.5428 10.8335C18.003 10.8335 18.3761 10.4604 18.3761 10.0002C18.3761 9.53993 18.003 9.16683 17.5428 9.16683Z" fill="#838895"/>
</svg>
