<svg width="24" height="24" viewBox="0 0 24 24" fill="none" xmlns="http://www.w3.org/2000/svg">
<path d="M12 10.5859L16.9497 5.63615C17.3403 5.24563 17.9734 5.24563 18.364 5.63615C18.7545 6.02668 18.7545 6.65984 18.364 7.05037L13.4142 12.0001L18.364 16.9499C18.7545 17.3404 18.7545 17.9736 18.364 18.3641C17.9734 18.7546 17.3403 18.7546 16.9497 18.3641L12 13.4143L7.05025 18.3641C6.65972 18.7546 6.02656 18.7546 5.63603 18.3641C5.24551 17.9736 5.24551 17.3404 5.63603 16.9499L10.5858 12.0001L5.63603 7.05037C5.24551 6.65984 5.24551 6.02668 5.63603 5.63615C6.02656 5.24563 6.65972 5.24563 7.05025 5.63615L12 10.5859Z" fill="#4C84FF"/>
</svg>
