<svg width="74" height="18" viewBox="0 0 74 18" fill="none" xmlns="http://www.w3.org/2000/svg">
<rect width="74" height="18" rx="6" fill="#61D26F"/>
<path d="M7.61102 13C7.52302 13 7.45502 12.976 7.40702 12.928C7.35902 12.872 7.33502 12.804 7.33502 12.724V4.876C7.33502 4.796 7.35902 4.732 7.40702 4.684C7.45502 4.628 7.52302 4.6 7.61102 4.6H8.24702C8.32702 4.6 8.39102 4.628 8.43902 4.684C8.48702 4.732 8.51102 4.796 8.51102 4.876V11.956H12.507C12.595 11.956 12.663 11.984 12.711 12.04C12.759 12.088 12.783 12.156 12.783 12.244V12.724C12.783 12.804 12.759 12.872 12.711 12.928C12.663 12.976 12.595 13 12.507 13H7.61102ZM14.3727 13C14.2847 13 14.2167 12.976 14.1687 12.928C14.1207 12.872 14.0967 12.804 14.0967 12.724V4.888C14.0967 4.8 14.1207 4.732 14.1687 4.684C14.2167 4.628 14.2847 4.6 14.3727 4.6H17.0967C17.9207 4.6 18.5847 4.724 19.0887 4.972C19.5927 5.22 19.9607 5.588 20.1927 6.076C20.4247 6.556 20.5447 7.148 20.5527 7.852C20.5607 8.212 20.5647 8.528 20.5647 8.8C20.5647 9.072 20.5607 9.384 20.5527 9.736C20.5367 10.472 20.4127 11.084 20.1807 11.572C19.9567 12.052 19.5967 12.412 19.1007 12.652C18.6127 12.884 17.9647 13 17.1567 13H14.3727ZM15.2727 11.98H17.0967C17.6487 11.98 18.0887 11.904 18.4167 11.752C18.7447 11.6 18.9807 11.356 19.1247 11.02C19.2767 10.684 19.3567 10.24 19.3647 9.688C19.3807 9.448 19.3887 9.24 19.3887 9.064C19.3887 8.88 19.3887 8.7 19.3887 8.524C19.3887 8.34 19.3807 8.132 19.3647 7.9C19.3487 7.124 19.1647 6.552 18.8127 6.184C18.4607 5.808 17.8687 5.62 17.0367 5.62H15.2727V11.98ZM26.5401 13C26.4361 13 26.3521 12.972 26.2881 12.916C26.2321 12.86 26.1921 12.78 26.1681 12.676L24.6201 4.972C24.6121 4.94 24.6081 4.912 24.6081 4.888C24.6081 4.864 24.6081 4.848 24.6081 4.84C24.6081 4.776 24.6321 4.72 24.6801 4.672C24.7281 4.624 24.7841 4.6 24.8481 4.6H25.4721C25.6401 4.6 25.7361 4.668 25.7601 4.804L26.9841 10.996L28.2801 6.748C28.3041 6.676 28.3441 6.612 28.4001 6.556C28.4641 6.492 28.5521 6.46 28.6641 6.46H29.1081C29.2281 6.46 29.3161 6.492 29.3721 6.556C29.4281 6.612 29.4641 6.676 29.4801 6.748L30.7881 10.996L32.0001 4.804C32.0241 4.668 32.1241 4.6 32.3001 4.6H32.9241C32.9881 4.6 33.0441 4.624 33.0921 4.672C33.1401 4.72 33.1641 4.776 33.1641 4.84C33.1641 4.848 33.1601 4.864 33.1521 4.888C33.1521 4.912 33.1521 4.94 33.1521 4.972L31.6041 12.676C31.5801 12.78 31.5361 12.86 31.4721 12.916C31.4161 12.972 31.3361 13 31.2321 13H30.7641C30.6521 13 30.5641 12.972 30.5001 12.916C30.4361 12.86 30.3921 12.788 30.3681 12.7L28.8801 8.128L27.4041 12.7C27.3721 12.788 27.3241 12.86 27.2601 12.916C27.2041 12.972 27.1201 13 27.0081 13H26.5401ZM36.8036 13.12C35.9796 13.12 35.3236 12.868 34.8356 12.364C34.3476 11.852 34.0796 11.156 34.0316 10.276C34.0236 10.172 34.0196 10.04 34.0196 9.88C34.0196 9.712 34.0236 9.576 34.0316 9.472C34.0636 8.904 34.1956 8.408 34.4276 7.984C34.6596 7.552 34.9756 7.22 35.3756 6.988C35.7836 6.756 36.2596 6.64 36.8036 6.64C37.4116 6.64 37.9196 6.768 38.3276 7.024C38.7436 7.28 39.0596 7.644 39.2756 8.116C39.4916 8.588 39.5996 9.14 39.5996 9.772V9.976C39.5996 10.064 39.5716 10.132 39.5156 10.18C39.4676 10.228 39.4036 10.252 39.3236 10.252H35.1716C35.1716 10.26 35.1716 10.276 35.1716 10.3C35.1716 10.324 35.1716 10.344 35.1716 10.36C35.1876 10.688 35.2596 10.996 35.3876 11.284C35.5156 11.564 35.6996 11.792 35.9396 11.968C36.1796 12.144 36.4676 12.232 36.8036 12.232C37.0916 12.232 37.3316 12.188 37.5236 12.1C37.7156 12.012 37.8716 11.916 37.9916 11.812C38.1116 11.7 38.1916 11.616 38.2316 11.56C38.3036 11.456 38.3596 11.396 38.3996 11.38C38.4396 11.356 38.5036 11.344 38.5916 11.344H39.1676C39.2476 11.344 39.3116 11.368 39.3596 11.416C39.4156 11.456 39.4396 11.516 39.4316 11.596C39.4236 11.716 39.3596 11.864 39.2396 12.04C39.1196 12.208 38.9476 12.376 38.7236 12.544C38.4996 12.712 38.2276 12.852 37.9076 12.964C37.5876 13.068 37.2196 13.12 36.8036 13.12ZM35.1716 9.424H38.4596V9.388C38.4596 9.028 38.3916 8.708 38.2556 8.428C38.1276 8.148 37.9396 7.928 37.6916 7.768C37.4436 7.6 37.1476 7.516 36.8036 7.516C36.4596 7.516 36.1636 7.6 35.9156 7.768C35.6756 7.928 35.4916 8.148 35.3636 8.428C35.2356 8.708 35.1716 9.028 35.1716 9.388V9.424ZM44.1185 13.12C43.6385 13.12 43.2385 13.036 42.9185 12.868C42.5985 12.692 42.3425 12.476 42.1505 12.22V12.724C42.1505 12.804 42.1225 12.872 42.0665 12.928C42.0185 12.976 41.9545 13 41.8745 13H41.3225C41.2425 13 41.1745 12.976 41.1185 12.928C41.0705 12.872 41.0465 12.804 41.0465 12.724V4.756C41.0465 4.676 41.0705 4.612 41.1185 4.564C41.1745 4.508 41.2425 4.48 41.3225 4.48H41.8985C41.9865 4.48 42.0545 4.508 42.1025 4.564C42.1505 4.612 42.1745 4.676 42.1745 4.756V7.516C42.3745 7.268 42.6305 7.06 42.9425 6.892C43.2625 6.724 43.6545 6.64 44.1185 6.64C44.5665 6.64 44.9465 6.72 45.2585 6.88C45.5785 7.032 45.8385 7.244 46.0385 7.516C46.2465 7.788 46.4025 8.096 46.5065 8.44C46.6105 8.784 46.6665 9.144 46.6745 9.52C46.6825 9.648 46.6865 9.768 46.6865 9.88C46.6865 9.992 46.6825 10.112 46.6745 10.24C46.6665 10.624 46.6105 10.988 46.5065 11.332C46.4025 11.676 46.2465 11.984 46.0385 12.256C45.8385 12.52 45.5785 12.732 45.2585 12.892C44.9465 13.044 44.5665 13.12 44.1185 13.12ZM43.8665 12.148C44.2825 12.148 44.6065 12.06 44.8385 11.884C45.0785 11.7 45.2505 11.464 45.3545 11.176C45.4585 10.88 45.5185 10.564 45.5345 10.228C45.5425 9.996 45.5425 9.764 45.5345 9.532C45.5185 9.196 45.4585 8.884 45.3545 8.596C45.2505 8.3 45.0785 8.064 44.8385 7.888C44.6065 7.704 44.2825 7.612 43.8665 7.612C43.4905 7.612 43.1785 7.7 42.9305 7.876C42.6825 8.052 42.4945 8.276 42.3665 8.548C42.2465 8.82 42.1825 9.096 42.1745 9.376C42.1665 9.504 42.1625 9.66 42.1625 9.844C42.1625 10.02 42.1665 10.172 42.1745 10.3C42.1905 10.596 42.2545 10.888 42.3665 11.176C42.4865 11.456 42.6665 11.688 42.9065 11.872C43.1545 12.056 43.4745 12.148 43.8665 12.148ZM50.3312 13.12C49.8832 13.12 49.4992 13.064 49.1792 12.952C48.8592 12.84 48.5992 12.704 48.3992 12.544C48.1992 12.384 48.0472 12.224 47.9432 12.064C47.8472 11.904 47.7952 11.776 47.7872 11.68C47.7792 11.592 47.8072 11.524 47.8712 11.476C47.9352 11.428 47.9992 11.404 48.0632 11.404H48.5912C48.6392 11.404 48.6752 11.412 48.6992 11.428C48.7312 11.436 48.7712 11.468 48.8192 11.524C48.9232 11.636 49.0392 11.748 49.1672 11.86C49.2952 11.972 49.4512 12.064 49.6352 12.136C49.8272 12.208 50.0632 12.244 50.3432 12.244C50.7512 12.244 51.0872 12.168 51.3512 12.016C51.6152 11.856 51.7472 11.624 51.7472 11.32C51.7472 11.12 51.6912 10.96 51.5792 10.84C51.4752 10.72 51.2832 10.612 51.0032 10.516C50.7312 10.42 50.3552 10.32 49.8752 10.216C49.3952 10.104 49.0152 9.968 48.7352 9.808C48.4552 9.64 48.2552 9.444 48.1352 9.22C48.0152 8.988 47.9552 8.728 47.9552 8.44C47.9552 8.144 48.0432 7.86 48.2192 7.588C48.3952 7.308 48.6512 7.08 48.9872 6.904C49.3312 6.728 49.7592 6.64 50.2712 6.64C50.6872 6.64 51.0432 6.692 51.3392 6.796C51.6352 6.9 51.8792 7.032 52.0712 7.192C52.2632 7.344 52.4072 7.496 52.5032 7.648C52.5992 7.8 52.6512 7.928 52.6592 8.032C52.6672 8.112 52.6432 8.18 52.5872 8.236C52.5312 8.284 52.4672 8.308 52.3952 8.308H51.8912C51.8352 8.308 51.7872 8.296 51.7472 8.272C51.7152 8.248 51.6832 8.22 51.6512 8.188C51.5712 8.084 51.4752 7.98 51.3632 7.876C51.2592 7.772 51.1192 7.688 50.9432 7.624C50.7752 7.552 50.5512 7.516 50.2712 7.516C49.8712 7.516 49.5712 7.6 49.3712 7.768C49.1712 7.936 49.0712 8.148 49.0712 8.404C49.0712 8.556 49.1152 8.692 49.2032 8.812C49.2912 8.932 49.4592 9.04 49.7072 9.136C49.9552 9.232 50.3232 9.336 50.8112 9.448C51.3392 9.552 51.7552 9.692 52.0592 9.868C52.3632 10.044 52.5792 10.248 52.7072 10.48C52.8352 10.712 52.8992 10.98 52.8992 11.284C52.8992 11.62 52.7992 11.928 52.5992 12.208C52.4072 12.488 52.1192 12.712 51.7352 12.88C51.3592 13.04 50.8912 13.12 50.3312 13.12ZM54.5644 13C54.4844 13 54.4164 12.976 54.3604 12.928C54.3124 12.872 54.2884 12.804 54.2884 12.724V7.036C54.2884 6.956 54.3124 6.892 54.3604 6.844C54.4164 6.788 54.4844 6.76 54.5644 6.76H55.1404C55.2204 6.76 55.2844 6.788 55.3324 6.844C55.3804 6.892 55.4044 6.956 55.4044 7.036V12.724C55.4044 12.804 55.3804 12.872 55.3324 12.928C55.2844 12.976 55.2204 13 55.1404 13H54.5644ZM54.4684 5.596C54.3884 5.596 54.3204 5.572 54.2644 5.524C54.2164 5.468 54.1924 5.4 54.1924 5.32V4.672C54.1924 4.592 54.2164 4.528 54.2644 4.48C54.3204 4.424 54.3884 4.396 54.4684 4.396H55.2244C55.3044 4.396 55.3684 4.424 55.4164 4.48C55.4724 4.528 55.5004 4.592 55.5004 4.672V5.32C55.5004 5.4 55.4724 5.468 55.4164 5.524C55.3684 5.572 55.3044 5.596 55.2244 5.596H54.4684ZM59.6306 13C59.1826 13 58.8186 12.916 58.5386 12.748C58.2586 12.572 58.0546 12.328 57.9266 12.016C57.7986 11.696 57.7346 11.32 57.7346 10.888V7.72H56.7986C56.7186 7.72 56.6506 7.696 56.5946 7.648C56.5466 7.592 56.5226 7.524 56.5226 7.444V7.036C56.5226 6.956 56.5466 6.892 56.5946 6.844C56.6506 6.788 56.7186 6.76 56.7986 6.76H57.7346V4.756C57.7346 4.676 57.7586 4.612 57.8066 4.564C57.8626 4.508 57.9306 4.48 58.0106 4.48H58.5746C58.6546 4.48 58.7186 4.508 58.7666 4.564C58.8226 4.612 58.8506 4.676 58.8506 4.756V6.76H60.3386C60.4186 6.76 60.4826 6.788 60.5306 6.844C60.5866 6.892 60.6146 6.956 60.6146 7.036V7.444C60.6146 7.524 60.5866 7.592 60.5306 7.648C60.4826 7.696 60.4186 7.72 60.3386 7.72H58.8506V10.804C58.8506 11.18 58.9146 11.476 59.0426 11.692C59.1706 11.908 59.3986 12.016 59.7266 12.016H60.4586C60.5386 12.016 60.6026 12.044 60.6506 12.1C60.7066 12.148 60.7346 12.212 60.7346 12.292V12.724C60.7346 12.804 60.7066 12.872 60.6506 12.928C60.6026 12.976 60.5386 13 60.4586 13H59.6306ZM64.3661 13.12C63.5421 13.12 62.8861 12.868 62.3981 12.364C61.9101 11.852 61.6421 11.156 61.5941 10.276C61.5861 10.172 61.5821 10.04 61.5821 9.88C61.5821 9.712 61.5861 9.576 61.5941 9.472C61.6261 8.904 61.7581 8.408 61.9901 7.984C62.2221 7.552 62.5381 7.22 62.9381 6.988C63.3461 6.756 63.8221 6.64 64.3661 6.64C64.9741 6.64 65.4821 6.768 65.8901 7.024C66.3061 7.28 66.6221 7.644 66.8381 8.116C67.0541 8.588 67.1621 9.14 67.1621 9.772V9.976C67.1621 10.064 67.1341 10.132 67.0781 10.18C67.0301 10.228 66.9661 10.252 66.8861 10.252H62.7341C62.7341 10.26 62.7341 10.276 62.7341 10.3C62.7341 10.324 62.7341 10.344 62.7341 10.36C62.7501 10.688 62.8221 10.996 62.9501 11.284C63.0781 11.564 63.2621 11.792 63.5021 11.968C63.7421 12.144 64.0301 12.232 64.3661 12.232C64.6541 12.232 64.8941 12.188 65.0861 12.1C65.2781 12.012 65.4341 11.916 65.5541 11.812C65.6741 11.7 65.7541 11.616 65.7941 11.56C65.8661 11.456 65.9221 11.396 65.9621 11.38C66.0021 11.356 66.0661 11.344 66.1541 11.344H66.7301C66.8101 11.344 66.8741 11.368 66.9221 11.416C66.9781 11.456 67.0021 11.516 66.9941 11.596C66.9861 11.716 66.9221 11.864 66.8021 12.04C66.6821 12.208 66.5101 12.376 66.2861 12.544C66.0621 12.712 65.7901 12.852 65.4701 12.964C65.1501 13.068 64.7821 13.12 64.3661 13.12ZM62.7341 9.424H66.0221V9.388C66.0221 9.028 65.9541 8.708 65.8181 8.428C65.6901 8.148 65.5021 7.928 65.2541 7.768C65.0061 7.6 64.7101 7.516 64.3661 7.516C64.0221 7.516 63.7261 7.6 63.4781 7.768C63.2381 7.928 63.0541 8.148 62.9261 8.428C62.7981 8.708 62.7341 9.028 62.7341 9.388V9.424Z" fill="white"/>
</svg>
