<svg width="74" height="18" viewBox="0 0 74 18" fill="none" xmlns="http://www.w3.org/2000/svg">
<rect width="74" height="18" rx="6" fill="#1FAAE9"/>
<path d="M7.55828 13C7.47028 13 7.40228 12.976 7.35428 12.928C7.30628 12.872 7.28228 12.804 7.28228 12.724V4.888C7.28228 4.8 7.30628 4.732 7.35428 4.684C7.40228 4.628 7.47028 4.6 7.55828 4.6H10.4863C11.3903 4.6 12.1063 4.812 12.6343 5.236C13.1623 5.66 13.4263 6.288 13.4263 7.12C13.4263 7.736 13.2703 8.24 12.9583 8.632C12.6543 9.016 12.2383 9.284 11.7103 9.436L13.5583 12.628C13.5823 12.676 13.5943 12.72 13.5943 12.76C13.5943 12.824 13.5663 12.88 13.5103 12.928C13.4623 12.976 13.4063 13 13.3423 13H12.7663C12.6303 13 12.5303 12.964 12.4663 12.892C12.4023 12.82 12.3463 12.748 12.2983 12.676L10.5583 9.628H8.45828V12.724C8.45828 12.804 8.43028 12.872 8.37428 12.928C8.32628 12.976 8.25828 13 8.17028 13H7.55828ZM8.45828 8.608H10.4383C11.0383 8.608 11.4863 8.484 11.7823 8.236C12.0783 7.98 12.2263 7.604 12.2263 7.108C12.2263 6.62 12.0783 6.248 11.7823 5.992C11.4943 5.736 11.0463 5.608 10.4383 5.608H8.45828V8.608ZM17.4753 13.12C16.8673 13.12 16.3593 13.004 15.9513 12.772C15.5433 12.54 15.2313 12.22 15.0153 11.812C14.7993 11.396 14.6793 10.924 14.6553 10.396C14.6473 10.26 14.6433 10.088 14.6433 9.88C14.6433 9.664 14.6473 9.492 14.6553 9.364C14.6793 8.828 14.7993 8.356 15.0153 7.948C15.2393 7.54 15.5553 7.22 15.9633 6.988C16.3713 6.756 16.8753 6.64 17.4753 6.64C18.0753 6.64 18.5793 6.756 18.9873 6.988C19.3953 7.22 19.7073 7.54 19.9233 7.948C20.1473 8.356 20.2713 8.828 20.2953 9.364C20.3033 9.492 20.3073 9.664 20.3073 9.88C20.3073 10.088 20.3033 10.26 20.2953 10.396C20.2713 10.924 20.1513 11.396 19.9353 11.812C19.7193 12.22 19.4073 12.54 18.9993 12.772C18.5913 13.004 18.0833 13.12 17.4753 13.12ZM17.4753 12.196C17.9713 12.196 18.3673 12.04 18.6633 11.728C18.9593 11.408 19.1193 10.944 19.1433 10.336C19.1513 10.216 19.1553 10.064 19.1553 9.88C19.1553 9.696 19.1513 9.544 19.1433 9.424C19.1193 8.816 18.9593 8.356 18.6633 8.044C18.3673 7.724 17.9713 7.564 17.4753 7.564C16.9793 7.564 16.5793 7.724 16.2753 8.044C15.9793 8.356 15.8233 8.816 15.8073 9.424C15.7993 9.544 15.7952 9.696 15.7952 9.88C15.7952 10.064 15.7993 10.216 15.8073 10.336C15.8233 10.944 15.9793 11.408 16.2753 11.728C16.5793 12.04 16.9793 12.196 17.4753 12.196ZM24.1379 13.12C23.6259 13.12 23.1899 13.008 22.8299 12.784C22.4779 12.552 22.2099 12.232 22.0259 11.824C21.8419 11.416 21.7499 10.948 21.7499 10.42V7.036C21.7499 6.956 21.7739 6.892 21.8219 6.844C21.8779 6.788 21.9459 6.76 22.0259 6.76H22.6259C22.7059 6.76 22.7699 6.788 22.8179 6.844C22.8739 6.892 22.9019 6.956 22.9019 7.036V10.36C22.9019 11.552 23.4219 12.148 24.4619 12.148C24.9579 12.148 25.3539 11.992 25.6499 11.68C25.9539 11.36 26.1059 10.92 26.1059 10.36V7.036C26.1059 6.956 26.1299 6.892 26.1779 6.844C26.2339 6.788 26.3019 6.76 26.3819 6.76H26.9699C27.0579 6.76 27.1259 6.788 27.1739 6.844C27.2219 6.892 27.2459 6.956 27.2459 7.036V12.724C27.2459 12.804 27.2219 12.872 27.1739 12.928C27.1259 12.976 27.0579 13 26.9699 13H26.4179C26.3379 13 26.2699 12.976 26.2139 12.928C26.1659 12.872 26.1419 12.804 26.1419 12.724V12.196C25.9259 12.476 25.6619 12.7 25.3499 12.868C25.0459 13.036 24.6419 13.12 24.1379 13.12ZM29.3046 13C29.2246 13 29.1566 12.976 29.1006 12.928C29.0526 12.872 29.0286 12.804 29.0286 12.724V7.036C29.0286 6.956 29.0526 6.892 29.1006 6.844C29.1566 6.788 29.2246 6.76 29.3046 6.76H29.8686C29.9486 6.76 30.0126 6.788 30.0606 6.844C30.1166 6.892 30.1446 6.956 30.1446 7.036V7.564C30.3526 7.292 30.6126 7.072 30.9246 6.904C31.2446 6.728 31.6526 6.64 32.1486 6.64C32.6686 6.64 33.1086 6.756 33.4686 6.988C33.8366 7.212 34.1126 7.528 34.2966 7.936C34.4806 8.336 34.5726 8.804 34.5726 9.34V12.724C34.5726 12.804 34.5486 12.872 34.5006 12.928C34.4526 12.976 34.3886 13 34.3086 13H33.7086C33.6286 13 33.5606 12.976 33.5046 12.928C33.4566 12.872 33.4326 12.804 33.4326 12.724V9.4C33.4326 8.84 33.2966 8.404 33.0246 8.092C32.7526 7.772 32.3526 7.612 31.8246 7.612C31.3286 7.612 30.9286 7.772 30.6246 8.092C30.3286 8.404 30.1806 8.84 30.1806 9.4V12.724C30.1806 12.804 30.1526 12.872 30.0966 12.928C30.0486 12.976 29.9846 13 29.9046 13H29.3046ZM38.586 13.12C38.146 13.12 37.766 13.044 37.446 12.892C37.126 12.732 36.862 12.52 36.654 12.256C36.454 11.984 36.302 11.676 36.198 11.332C36.102 10.988 36.046 10.624 36.03 10.24C36.022 10.112 36.018 9.992 36.018 9.88C36.018 9.768 36.022 9.648 36.03 9.52C36.046 9.144 36.102 8.784 36.198 8.44C36.302 8.096 36.454 7.788 36.654 7.516C36.862 7.244 37.126 7.032 37.446 6.88C37.766 6.72 38.146 6.64 38.586 6.64C39.058 6.64 39.45 6.724 39.762 6.892C40.074 7.06 40.33 7.268 40.53 7.516V4.756C40.53 4.676 40.554 4.612 40.602 4.564C40.658 4.508 40.726 4.48 40.806 4.48H41.382C41.462 4.48 41.526 4.508 41.574 4.564C41.63 4.612 41.658 4.676 41.658 4.756V12.724C41.658 12.804 41.63 12.872 41.574 12.928C41.526 12.976 41.462 13 41.382 13H40.842C40.754 13 40.686 12.976 40.638 12.928C40.59 12.872 40.566 12.804 40.566 12.724V12.22C40.366 12.476 40.106 12.692 39.786 12.868C39.466 13.036 39.066 13.12 38.586 13.12ZM38.838 12.148C39.238 12.148 39.558 12.056 39.798 11.872C40.038 11.688 40.218 11.456 40.338 11.176C40.458 10.888 40.522 10.596 40.53 10.3C40.538 10.172 40.542 10.02 40.542 9.844C40.542 9.66 40.538 9.504 40.53 9.376C40.522 9.096 40.454 8.82 40.326 8.548C40.206 8.276 40.022 8.052 39.774 7.876C39.534 7.7 39.222 7.612 38.838 7.612C38.43 7.612 38.106 7.704 37.866 7.888C37.626 8.064 37.454 8.3 37.35 8.596C37.246 8.884 37.186 9.196 37.17 9.532C37.162 9.764 37.162 9.996 37.17 10.228C37.186 10.564 37.246 10.88 37.35 11.176C37.454 11.464 37.626 11.7 37.866 11.884C38.106 12.06 38.43 12.148 38.838 12.148ZM43.7187 13C43.6387 13 43.5707 12.976 43.5147 12.928C43.4667 12.872 43.4427 12.804 43.4427 12.724V7.048C43.4427 6.968 43.4667 6.9 43.5147 6.844C43.5707 6.788 43.6387 6.76 43.7187 6.76H44.2707C44.3507 6.76 44.4187 6.788 44.4747 6.844C44.5307 6.9 44.5587 6.968 44.5587 7.048V7.576C44.7187 7.304 44.9387 7.1 45.2187 6.964C45.4987 6.828 45.8347 6.76 46.2267 6.76H46.7067C46.7867 6.76 46.8507 6.788 46.8987 6.844C46.9467 6.892 46.9707 6.956 46.9707 7.036V7.528C46.9707 7.608 46.9467 7.672 46.8987 7.72C46.8507 7.768 46.7867 7.792 46.7067 7.792H45.9867C45.5547 7.792 45.2147 7.92 44.9667 8.176C44.7187 8.424 44.5947 8.764 44.5947 9.196V12.724C44.5947 12.804 44.5667 12.872 44.5107 12.928C44.4547 12.976 44.3867 13 44.3067 13H43.7187ZM50.3293 13.12C49.8173 13.12 49.3813 13.008 49.0213 12.784C48.6693 12.552 48.4013 12.232 48.2173 11.824C48.0333 11.416 47.9413 10.948 47.9413 10.42V7.036C47.9413 6.956 47.9653 6.892 48.0133 6.844C48.0693 6.788 48.1373 6.76 48.2173 6.76H48.8173C48.8973 6.76 48.9613 6.788 49.0093 6.844C49.0653 6.892 49.0933 6.956 49.0933 7.036V10.36C49.0933 11.552 49.6133 12.148 50.6533 12.148C51.1493 12.148 51.5453 11.992 51.8413 11.68C52.1453 11.36 52.2973 10.92 52.2973 10.36V7.036C52.2973 6.956 52.3213 6.892 52.3693 6.844C52.4253 6.788 52.4933 6.76 52.5733 6.76H53.1613C53.2493 6.76 53.3173 6.788 53.3653 6.844C53.4133 6.892 53.4373 6.956 53.4373 7.036V12.724C53.4373 12.804 53.4133 12.872 53.3653 12.928C53.3173 12.976 53.2493 13 53.1613 13H52.6093C52.5293 13 52.4613 12.976 52.4053 12.928C52.3573 12.872 52.3333 12.804 52.3333 12.724V12.196C52.1173 12.476 51.8533 12.7 51.5413 12.868C51.2373 13.036 50.8333 13.12 50.3293 13.12ZM57.38 13.12C56.932 13.12 56.548 13.064 56.228 12.952C55.908 12.84 55.648 12.704 55.448 12.544C55.248 12.384 55.096 12.224 54.992 12.064C54.896 11.904 54.844 11.776 54.836 11.68C54.828 11.592 54.856 11.524 54.92 11.476C54.984 11.428 55.048 11.404 55.112 11.404H55.64C55.688 11.404 55.724 11.412 55.748 11.428C55.78 11.436 55.82 11.468 55.868 11.524C55.972 11.636 56.088 11.748 56.216 11.86C56.344 11.972 56.5 12.064 56.684 12.136C56.876 12.208 57.112 12.244 57.392 12.244C57.8 12.244 58.136 12.168 58.4 12.016C58.664 11.856 58.796 11.624 58.796 11.32C58.796 11.12 58.74 10.96 58.628 10.84C58.524 10.72 58.332 10.612 58.052 10.516C57.78 10.42 57.404 10.32 56.924 10.216C56.444 10.104 56.064 9.968 55.784 9.808C55.504 9.64 55.304 9.444 55.184 9.22C55.064 8.988 55.004 8.728 55.004 8.44C55.004 8.144 55.092 7.86 55.268 7.588C55.444 7.308 55.7 7.08 56.036 6.904C56.38 6.728 56.808 6.64 57.32 6.64C57.736 6.64 58.092 6.692 58.388 6.796C58.684 6.9 58.928 7.032 59.12 7.192C59.312 7.344 59.456 7.496 59.552 7.648C59.648 7.8 59.7 7.928 59.708 8.032C59.716 8.112 59.692 8.18 59.636 8.236C59.58 8.284 59.516 8.308 59.444 8.308H58.94C58.884 8.308 58.836 8.296 58.796 8.272C58.764 8.248 58.732 8.22 58.7 8.188C58.62 8.084 58.524 7.98 58.412 7.876C58.308 7.772 58.168 7.688 57.992 7.624C57.824 7.552 57.6 7.516 57.32 7.516C56.92 7.516 56.62 7.6 56.42 7.768C56.22 7.936 56.12 8.148 56.12 8.404C56.12 8.556 56.164 8.692 56.252 8.812C56.34 8.932 56.508 9.04 56.756 9.136C57.004 9.232 57.372 9.336 57.86 9.448C58.388 9.552 58.804 9.692 59.108 9.868C59.412 10.044 59.628 10.248 59.756 10.48C59.884 10.712 59.948 10.98 59.948 11.284C59.948 11.62 59.848 11.928 59.648 12.208C59.456 12.488 59.168 12.712 58.784 12.88C58.408 13.04 57.94 13.12 57.38 13.12ZM61.6252 13C61.5452 13 61.4772 12.976 61.4212 12.928C61.3732 12.872 61.3492 12.804 61.3492 12.724V4.756C61.3492 4.676 61.3732 4.612 61.4212 4.564C61.4772 4.508 61.5452 4.48 61.6252 4.48H62.2252C62.3132 4.48 62.3812 4.508 62.4292 4.564C62.4772 4.612 62.5012 4.676 62.5012 4.756V7.552C62.7172 7.28 62.9812 7.06 63.2932 6.892C63.6052 6.724 64.0012 6.64 64.4812 6.64C65.0012 6.64 65.4412 6.756 65.8012 6.988C66.1692 7.212 66.4452 7.528 66.6292 7.936C66.8212 8.336 66.9172 8.804 66.9172 9.34V12.724C66.9172 12.804 66.8932 12.872 66.8452 12.928C66.7972 12.976 66.7292 13 66.6412 13H66.0412C65.9612 13 65.8932 12.976 65.8372 12.928C65.7892 12.872 65.7652 12.804 65.7652 12.724V9.4C65.7652 8.84 65.6292 8.404 65.3572 8.092C65.0852 7.772 64.6852 7.612 64.1572 7.612C63.6612 7.612 63.2612 7.772 62.9572 8.092C62.6532 8.404 62.5012 8.84 62.5012 9.4V12.724C62.5012 12.804 62.4772 12.872 62.4292 12.928C62.3812 12.976 62.3132 13 62.2252 13H61.6252Z" fill="white"/>
</svg>
