<svg width="24" height="24" viewBox="0 0 24 24" fill="none" xmlns="http://www.w3.org/2000/svg">
<path fill-rule="evenodd" clip-rule="evenodd" d="M9.94873 3C9.39645 3 8.94873 3.44772 8.94873 4H4.94873C4.39645 4 3.94873 4.44772 3.94873 5C3.94873 5.55228 4.39645 6 4.94873 6H18.9487C19.501 6 19.9487 5.55228 19.9487 5C19.9487 4.44772 19.501 4 18.9487 4H14.9487C14.9487 3.44772 14.501 3 13.9487 3H9.94873ZM16.9487 9V19H6.94873V9C6.94873 8.44772 6.50102 8 5.94873 8C5.39645 8 4.94873 8.44772 4.94873 9V19C4.94873 20.219 5.72978 21 6.94873 21H16.9487C18.1677 21 18.9487 20.219 18.9487 19V9C18.9487 8.44772 18.501 8 17.9487 8C17.3964 8 16.9487 8.44772 16.9487 9Z" fill="#FD5461"/>
</svg>
