<svg width="24" height="24" viewBox="0 0 24 24" fill="none" xmlns="http://www.w3.org/2000/svg">
<path fill-rule="evenodd" clip-rule="evenodd" d="M11.331 2.25671L4.33438 8.55371L4.32819 8.55927L1.33104 11.2567C0.920534 11.6262 0.887255 12.2585 1.25671 12.669C1.62617 13.0795 2.25846 13.1128 2.66897 12.7433L4.00001 11.5454V21C4.00001 21.5523 4.44772 22 5.00001 22H19C19.5523 22 20 21.5523 20 21V11.5454L21.331 12.7433C21.7416 13.1128 22.3738 13.0795 22.7433 12.669C23.1128 12.2585 23.0795 11.6262 22.669 11.2567L19.6718 8.55927L19.6656 8.55371L12.669 2.25671C12.2887 1.91443 11.7113 1.91443 11.331 2.25671ZM6.00001 20V9.74536L12 4.34536L18 9.74536V20H6.00001Z" fill="white"/>
</svg>
