<svg width="24" height="24" viewBox="0 0 24 24" fill="none" xmlns="http://www.w3.org/2000/svg">
<g clipPath="url(#clip0_1946_1382)">
<path d="M8.89434 23.5883C2.49422 21.8734 -1.30378 15.295 0.410997 8.89492C2.12597 2.49498 8.7044 -1.30311 15.1044 0.411763C21.5044 2.12664 25.3025 8.70508 23.5876 15.1051C21.8727 21.505 15.2943 25.3031 8.89425 23.5883H8.89434Z" fill="#EEAA33"/>
<path d="M9.52549 21.234C8.25049 20.8923 8.32464 16.481 9.69124 11.381C11.0577 6.28101 13.1992 2.42348 14.4742 2.7652C15.7492 3.10683 15.675 7.51814 14.3084 12.6181C12.9419 17.7181 10.8005 21.5757 9.52549 21.234Z" fill="white"/>
<path d="M16.5342 18.1634C15.8967 17.9926 15.9338 15.7868 16.6171 13.2368C17.3003 10.6868 18.3711 8.75809 19.0086 8.92899C19.6461 9.0998 19.609 11.3055 18.9257 13.8555C18.2424 16.4055 17.1717 18.3342 16.5342 18.1633V18.1634Z" fill="white"/>
<path d="M4.99123 15.0711C4.35373 14.9002 4.39086 12.6945 5.0742 10.1445C5.75745 7.59452 6.82817 5.6658 7.46567 5.83671C8.10317 6.00743 8.06604 8.21308 7.38279 10.7631C6.69954 13.3131 5.62873 15.2419 4.99123 15.0711Z" fill="white"/>
</g>
<defs>
<clipPath id="clip0_1946_1382">
<rect width="24" height="24" fill="white"/>
</clipPath>
</defs>
</svg>
