<svg width="24" height="24" viewBox="0 0 24 24" fill="none" xmlns="http://www.w3.org/2000/svg">
<g clip-path="url(#clip0_1946_567)">
<path d="M5.04761 15.1236C5.04761 16.5141 3.92382 17.6379 2.53332 17.6379C1.14282 17.6379 0.019043 16.5141 0.019043 15.1236C0.019043 13.7332 1.14282 12.6094 2.53342 12.6094H5.04751V15.1237L5.04761 15.1236ZM6.30479 15.1236C6.30479 13.7332 7.42857 12.6094 8.81907 12.6094C10.2096 12.6094 11.3334 13.7332 11.3334 15.1237V21.4093C11.3334 22.7998 10.2096 23.9237 8.81898 23.9237C7.42867 23.9237 6.30479 22.7998 6.30479 21.4093V15.1237V15.1236Z" fill="#E01E5A"/>
<path d="M8.81906 5.02856C7.42856 5.02856 6.30469 3.90478 6.30469 2.51428C6.30469 1.12378 7.42866 0 8.81906 0C10.2095 0 11.3333 1.12378 11.3333 2.51428V5.02866H8.81897L8.81906 5.02856ZM8.81906 6.30478C10.2096 6.30478 11.3333 7.42856 11.3333 8.81906C11.3333 10.2096 10.2096 11.3333 8.81897 11.3333H2.51437C1.12378 11.3333 0 10.2096 0 8.81897C0 7.42866 1.12378 6.30478 2.51428 6.30478H8.81897H8.81906Z" fill="#36C5F0"/>
<path d="M18.8954 8.81906C18.8954 7.42856 20.0191 6.30469 21.4096 6.30469C22.8001 6.30469 23.9239 7.42856 23.9239 8.81906C23.9239 10.2096 22.8001 11.3333 21.4096 11.3333H18.8954V8.81897V8.81906ZM17.6382 8.81906C17.6382 10.2096 16.5143 11.3333 15.1238 11.3333C13.7334 11.3333 12.6096 10.2096 12.6096 8.81897V2.51437C12.6096 1.12378 13.7334 0 15.1238 0C16.5142 0 17.6381 1.12378 17.6381 2.51428V8.81897L17.6382 8.81906Z" fill="#2EB67D"/>
<path d="M15.1238 18.8951C16.5143 18.8951 17.6382 20.0189 17.6382 21.4093C17.6382 22.7998 16.5143 23.9237 15.1238 23.9237C13.7334 23.9237 12.6096 22.7998 12.6096 21.4093V18.8951H15.1239H15.1238ZM15.1238 17.6379C13.7334 17.6379 12.6096 16.5141 12.6096 15.1236C12.6096 13.7332 13.7334 12.6094 15.1239 12.6094H21.4286C22.8191 12.6094 23.943 13.7332 23.943 15.1237C23.943 16.5141 22.8191 17.6379 21.4286 17.6379H15.1239H15.1238Z" fill="#ECB22E"/>
</g>
<defs>
<clipPath id="clip0_1946_567">
<rect width="24" height="24" fill="white"/>
</clipPath>
</defs>
</svg>
