<svg width="24" height="24" viewBox="0 0 24 24" fill="none" xmlns="http://www.w3.org/2000/svg">
<g clip-path="url(#clip0_1946_572)">
<path d="M6.3611 0.878384C6.5425 0.848946 6.73891 0.845946 6.90888 0.926196C7.1605 1.02763 7.33854 1.26857 7.39947 1.52826C7.42019 1.71295 7.41419 1.9087 7.32682 2.07735C7.16819 2.42601 6.74622 2.6271 6.37582 2.53045C5.99575 2.44542 5.713 2.0797 5.71657 1.6912C5.70925 1.3131 5.99875 0.967728 6.3611 0.878384Z" fill="white"/>
<path d="M17.232 0.876802C17.4157 0.848021 17.6138 0.847646 17.7845 0.932021C18.0669 1.05652 18.2583 1.35127 18.2787 1.65671C18.2784 1.89202 18.1998 2.13765 18.0254 2.30227C17.8773 2.45855 17.6636 2.5449 17.4505 2.55446C17.1206 2.55915 16.788 2.36218 16.6588 2.0544C16.5752 1.89005 16.5855 1.70068 16.5963 1.52265C16.6588 1.20877 16.9218 0.949364 17.232 0.876708" fill="white"/>
<path d="M16.1411 13.7282C16.5711 13.7262 17.0011 13.7258 17.4307 13.7282C17.4254 15.4372 17.4298 17.1463 17.4289 18.8553C17.0004 18.8553 16.5721 18.8557 16.1436 18.855C16.1424 17.1459 16.1471 15.4372 16.1411 13.7282Z" fill="white"/>
<path d="M17.232 0.876779C16.9218 0.949342 16.6588 1.20865 16.5964 1.52262C16.5855 1.70065 16.5752 1.89003 16.6588 2.05437C16.788 2.36215 17.1206 2.55922 17.4505 2.55453C17.6636 2.54487 17.8772 2.45853 18.0254 2.30225C18.1998 2.13762 18.2785 1.892 18.2787 1.65678C18.2583 1.35115 18.067 1.0565 17.7845 0.931998C17.6139 0.847623 17.4158 0.847998 17.232 0.876686V0.876779ZM6.36114 0.878092C5.9987 0.967436 5.7093 1.31281 5.71661 1.6909C5.71295 2.0794 5.9957 2.44512 6.37586 2.53015C6.74627 2.62672 7.16823 2.42572 7.32686 2.07706C7.41423 1.90831 7.42023 1.71265 7.39952 1.52797C7.33858 1.26828 7.16055 1.02734 6.90892 0.925904C6.73895 0.845654 6.54255 0.848654 6.36114 0.878092ZM2.20173 0.130904C2.47286 0.0121231 2.77267 -0.00597063 3.0648 0.00143562C9.08833 0.00209187 15.1119 0.00143562 21.1354 0.00106062C21.7926 -0.00990813 22.4329 0.396311 22.6985 0.998186C22.8105 1.23537 22.858 1.49881 22.8534 1.76037C22.8507 2.34612 22.8594 2.93169 22.85 3.51697C22.6556 3.4429 22.4461 3.42322 22.2397 3.4219C15.424 3.42331 8.60852 3.42256 1.79289 3.42284C1.57708 3.42865 1.3562 3.43784 1.15239 3.51734C1.14367 2.9089 1.14836 2.30065 1.14639 1.69259C1.14236 1.022 1.57905 0.378217 2.20173 0.130904Z" fill="#C7C7C7"/>
<path d="M17.1309 8.59844C17.2274 8.5586 17.3324 8.56066 17.4345 8.56863C17.4285 10.2833 17.4352 11.9982 17.4312 13.7127L17.4308 13.7282C17.0011 13.7258 16.5711 13.7262 16.1412 13.7282V13.7132C16.1405 12.5276 16.1401 11.3424 16.1414 10.1568C15.2841 10.4418 14.4286 10.7316 13.5709 11.015C13.5682 10.6279 13.5729 10.2407 13.5686 9.85366C14.7545 9.43085 15.9443 9.01873 17.131 8.59835" fill="#C7C7C7"/>
<path d="M6.64051 9.21444C7.1777 8.80522 7.84988 8.59372 8.52113 8.5685C9.18713 8.54506 9.87638 8.65288 10.4589 8.99122C10.9198 9.25522 11.2845 9.67785 11.4832 10.1697C11.6814 10.6609 11.7443 11.2041 11.684 11.7291C11.5551 12.57 10.9057 13.2493 10.1467 13.5853C10.2552 13.6177 10.3608 13.6596 10.462 13.7104C10.3957 13.7238 10.3281 13.7298 10.2605 13.7285C9.36517 13.7221 8.46966 13.7345 7.57482 13.7224C7.57154 13.5281 7.56685 13.3333 7.57913 13.1392C8.2247 13.1238 8.9057 13.2028 9.50963 12.9197C10.0058 12.7103 10.3749 12.2357 10.4449 11.7C10.5051 11.1897 10.4535 10.6316 10.1511 10.1996C9.91313 9.85756 9.50992 9.66819 9.1067 9.60828C8.56267 9.53235 7.96595 9.58653 7.5092 9.91672C7.05957 10.233 6.82154 10.7911 6.83298 11.3329C6.4186 11.344 6.00404 11.3355 5.58948 11.3369C5.59763 11.1094 5.61488 10.8804 5.67423 10.66C5.81673 10.0855 6.16838 9.5691 6.64051 9.21435" fill="#C7C7C7"/>
<path d="M1.15229 3.51722C1.35611 3.43791 1.57698 3.42853 1.79279 3.42281C8.60842 3.42253 15.424 3.42319 22.2396 3.42188C22.446 3.42319 22.6555 3.44297 22.8499 3.51684C23.4389 3.72938 23.916 4.27481 23.9776 4.90659C23.8578 4.47356 23.5989 4.07062 23.2117 3.83203C22.9313 3.65709 22.604 3.55603 22.2728 3.55903C15.4354 3.56372 8.59764 3.56372 1.75998 3.56372C1.24501 3.55434 0.726014 3.77653 0.397795 4.17741C0.23842 4.34775 0.15517 4.56759 0.0437012 4.76803C0.154139 4.19184 0.604889 3.71166 1.15229 3.51722Z" fill="#4483EF"/>
<path d="M16.1171 13.7147L16.1412 13.7128V13.7278C16.1472 15.4367 16.1425 17.1456 16.1435 18.8546C16.5721 18.8552 17.0005 18.855 17.4288 18.855C17.4297 17.1459 17.4254 15.4367 17.4309 13.7278L17.4312 13.7124L17.4519 13.7141C17.641 13.7369 17.8317 13.7231 18.0218 13.7252C19.6324 13.7241 21.2432 13.7222 22.8536 13.7252C23.0398 16.4185 23.2148 19.1126 23.3989 21.8059C23.4169 22.1138 23.4561 22.43 23.3708 22.7319L23.363 22.7416C23.284 22.8302 23.2385 22.9407 23.182 23.0437C22.8798 23.5368 22.3182 23.8689 21.736 23.8633C15.3109 23.8595 8.8862 23.8661 2.46152 23.8638C2.25995 23.8638 2.05464 23.8742 1.85814 23.8214C1.41414 23.7002 1.01158 23.4094 0.787984 23.0029C0.741109 22.9139 0.697702 22.8226 0.635077 22.7435L0.627109 22.7325C0.519671 22.329 0.606952 21.9107 0.620359 21.5018C0.797077 18.9111 0.965359 16.3195 1.14442 13.7288C3.28567 13.7235 5.4273 13.7258 7.56836 13.7275C7.57042 13.8506 7.57155 13.9738 7.56986 14.0969C8.24833 14.1099 8.95858 14.0286 9.60123 14.2973C10.0353 14.4667 10.3916 14.8294 10.5289 15.2775C10.6801 15.7733 10.6627 16.3221 10.485 16.8091C10.3194 17.2654 9.92252 17.6181 9.45902 17.7543C8.89633 17.9209 8.26942 17.9066 7.72745 17.674C7.30539 17.4937 6.96105 17.1302 6.83092 16.6873C6.76905 16.4921 6.74505 16.287 6.7412 16.0832C6.33095 16.0859 5.9207 16.0849 5.51045 16.0836C5.51823 16.6025 5.64405 17.1296 5.93383 17.5652C6.24264 18.0418 6.72189 18.3898 7.24698 18.5939C7.91252 18.8536 8.64798 18.9115 9.35167 18.8037C10.036 18.6953 10.7062 18.3887 11.171 17.8643C11.598 17.3906 11.8188 16.7568 11.8479 16.1248C11.8871 15.5214 11.7482 14.8877 11.365 14.4084C11.1497 14.1247 10.8534 13.9199 10.5509 13.7399C10.6981 13.7215 10.8467 13.7254 10.9949 13.7262C12.5123 13.7248 14.0294 13.7265 15.5465 13.7254C15.7366 13.7215 15.9276 13.7372 16.1171 13.7147Z" fill="#4483EF"/>
<path d="M0.397884 4.17752C0.726009 3.77665 1.2451 3.55446 1.76007 3.56383C8.59782 3.56383 15.4354 3.56383 22.2729 3.55915C22.6041 3.55615 22.9314 3.65721 23.2118 3.83215C23.5989 4.07074 23.858 4.47368 23.9777 4.90671C24.0109 5.05962 24.0018 5.21824 23.9844 5.37284C23.613 8.15534 23.2279 10.936 22.8613 13.7189C21.3159 13.7163 19.7702 13.7203 18.2249 13.7187C17.9671 13.7166 17.7092 13.7283 17.4519 13.7143L17.4311 13.7127C17.4352 11.998 17.4285 10.2831 17.4345 8.5684C17.3323 8.56043 17.2273 8.55837 17.131 8.59821C15.9444 9.01849 14.7545 9.43081 13.5685 9.85352C13.5729 10.2405 13.5683 10.6277 13.571 11.0149C14.4286 10.7315 15.2843 10.4416 16.1415 10.1565C16.1402 11.3422 16.1405 12.5275 16.1412 13.7129L16.1171 13.7149C14.3212 13.7283 12.5246 13.7153 10.7287 13.722C10.64 13.72 10.5463 13.7474 10.462 13.7103C10.3608 13.6595 10.2553 13.6176 10.1468 13.5852C10.9057 13.2492 11.5552 12.5699 11.6841 11.729C11.7443 11.204 11.6813 10.6609 11.4833 10.1697C11.2845 9.67774 10.9197 9.25512 10.4589 8.99121C9.87638 8.65277 9.18704 8.54506 8.52113 8.5684C7.84988 8.59353 7.1776 8.80503 6.64051 9.21434C6.16848 9.56899 5.81673 10.0853 5.67423 10.66C5.61498 10.8804 5.59754 11.1092 5.58948 11.3368C6.00413 11.3354 6.4187 11.3438 6.83298 11.3328C6.82163 10.791 7.05957 10.2328 7.50929 9.91662C7.96604 9.58634 8.56266 9.53224 9.10679 9.60818C9.50991 9.66799 9.91323 9.85737 10.1512 10.1994C10.4536 10.6314 10.5052 11.1896 10.4449 11.6998C10.3749 12.2356 10.0059 12.7101 9.50963 12.9196C8.9057 13.2027 8.2247 13.1237 7.57923 13.1391L7.5632 13.1394C7.56976 13.3338 7.56216 13.5286 7.56751 13.7234C5.42523 13.72 3.28266 13.7193 1.14001 13.7236C0.774759 10.9975 0.403696 8.27206 0.0362898 5.54627C-0.0059915 5.28921 -0.0203352 5.02259 0.0439773 4.76824C0.155352 4.5678 0.238696 4.34796 0.397977 4.17762" fill="#3664D0"/>
<path d="M0.63501 22.7437C0.697541 22.8227 0.741135 22.914 0.787822 23.0031C1.01151 23.4096 1.41407 23.7004 1.85807 23.8215C2.05448 23.8744 2.25998 23.864 2.46135 23.864C8.88604 23.8663 15.3109 23.8597 21.736 23.8633C22.3182 23.8689 22.8797 23.5371 23.1819 23.0439C23.2385 22.9407 23.284 22.8304 23.3628 22.7417C23.2211 23.2908 22.7794 23.7465 22.2393 23.9158C21.9381 24.021 21.6152 23.9945 21.3024 23.9979L2.52895 23.9976C2.27938 23.9994 2.02401 24.0019 1.78363 23.9239C1.23295 23.7606 0.780229 23.3004 0.63501 22.7436" fill="#3664D0"/>
</g>
<defs>
<clipPath id="clip0_1946_572">
<rect width="24" height="24" fill="white"/>
</clipPath>
</defs>
</svg>
