<svg width="107" height="107" viewBox="0 0 107 107" fill="none" xmlns="http://www.w3.org/2000/svg">
<rect x="50.5273" y="58.7451" width="10.9972" height="48.2549" fill="url(#paint0_linear_8_9706)"/>
<rect x="51.4199" y="58.7451" width="9.21389" height="47.3557" fill="#ECEFF1"/>
<path fill-rule="evenodd" clip-rule="evenodd" d="M86.5722 21.2803H37.7526C36.0745 21.3233 34.4207 21.6934 32.8832 22.3701C27.9205 24.5789 25.032 28.0458 24.2163 35.7344V53.4973L11.2802 53.3598C8.6787 53.3598 7.72754 57.4674 7.72754 60.2439H95.1109V30.3922C95.1109 25.3601 91.2931 21.2803 86.5722 21.2803Z" fill="url(#paint1_linear_8_9706)"/>
<path fill-rule="evenodd" clip-rule="evenodd" d="M39.5303 23.0781H87.9861C91.2644 23.0781 93.9219 25.7529 93.9219 29.0524V58.7448H39.5303V23.0781Z" fill="#0079FF"/>
<path fill-rule="evenodd" clip-rule="evenodd" d="M38.3414 23.0781C45.5641 23.0781 51.4192 29.0017 51.4192 36.3088V52.2697C51.4192 55.8458 48.5537 58.7448 45.019 58.7448H31.6639C28.1292 58.7448 25.2637 55.8458 25.2637 52.2697V36.3088C25.2637 29.0017 31.1188 23.0781 38.3414 23.0781Z" fill="#0079FF"/>
<path opacity="0.2" fill-rule="evenodd" clip-rule="evenodd" d="M38.3414 23.0781C45.5641 23.0781 51.4192 29.0017 51.4192 36.3088V52.2697C51.4192 55.8458 48.5537 58.7448 45.019 58.7448H31.6639C28.1292 58.7448 25.2637 55.8458 25.2637 52.2697V36.3088C25.2637 29.0017 31.1188 23.0781 38.3414 23.0781Z" fill="black"/>
<path fill-rule="evenodd" clip-rule="evenodd" d="M73.4142 18.583H66.5413H62.417V26.6447V36.5662H67.4087V26.6447H73.4142V18.583Z" fill="url(#paint2_linear_8_9706)"/>
<path fill-rule="evenodd" clip-rule="evenodd" d="M72.5225 18.2832H66.7636H63.3086V25.8073V35.0675H66.7636V25.8073H72.5225V18.2832Z" fill="#FFCC80"/>
<path fill-rule="evenodd" clip-rule="evenodd" d="M23.9619 41.1768L25.3126 30.0044L43.3678 32.2172L42.0172 43.3896L23.9619 41.1768Z" fill="url(#paint3_linear_8_9706)"/>
<path fill-rule="evenodd" clip-rule="evenodd" d="M24.2402 40.7354L25.5007 30.309L42.9439 32.4468L41.6834 42.8731L24.2402 40.7354Z" fill="#FAF8E4"/>
<g opacity="0.6">
<path fill-rule="evenodd" clip-rule="evenodd" d="M28.0768 33.1401L25.8686 32.9088L26.0914 31.2944L28.2996 31.5258L28.0768 33.1401Z" fill="#0079FF"/>
<path fill-rule="evenodd" clip-rule="evenodd" d="M35.8754 37.2721L27.3068 36.3515L27.365 35.9396L35.9336 36.8602L35.8754 37.2721Z" fill="#0079FF"/>
<path fill-rule="evenodd" clip-rule="evenodd" d="M35.7332 38.471L29.485 37.7982L29.5229 37.5304L35.7711 38.2032L35.7332 38.471Z" fill="#0079FF"/>
</g>
<path fill-rule="evenodd" clip-rule="evenodd" d="M31.3184 43.6348L32.669 32.4624L50.7243 34.6752L49.3736 45.8476L31.3184 43.6348Z" fill="url(#paint4_linear_8_9706)"/>
<path fill-rule="evenodd" clip-rule="evenodd" d="M31.5967 43.1943L32.8571 32.768L50.3003 34.9057L49.0398 45.3321L31.5967 43.1943Z" fill="#FAF8E4"/>
<g opacity="0.6">
<path fill-rule="evenodd" clip-rule="evenodd" d="M35.5496 35.5113L33.3676 35.2704L33.582 33.6465L35.7639 33.8874L35.5496 35.5113Z" fill="#0079FF"/>
<path fill-rule="evenodd" clip-rule="evenodd" d="M43.2293 39.6626L34.7847 38.714L34.8436 38.2742L43.2882 39.2228L43.2293 39.6626Z" fill="#0079FF"/>
<path fill-rule="evenodd" clip-rule="evenodd" d="M43.0867 40.8534L36.929 40.1606L36.9676 39.8729L43.1253 40.5656L43.0867 40.8534Z" fill="#0079FF"/>
</g>
<path fill-rule="evenodd" clip-rule="evenodd" d="M15.207 48.6562L17.0378 33.5121L41.5109 36.5114L39.6801 51.6556L15.207 48.6562Z" fill="url(#paint5_linear_8_9706)"/>
<path fill-rule="evenodd" clip-rule="evenodd" d="M15.5859 48.0576L17.2947 33.9232L40.9386 36.8209L39.2299 50.9553L15.5859 48.0576Z" fill="white"/>
<g opacity="0.6">
<path fill-rule="evenodd" clip-rule="evenodd" d="M20.9986 37.7044L17.9689 37.3351L18.2372 35.1184L21.2669 35.4877L20.9986 37.7044Z" fill="#0079FF"/>
<path fill-rule="evenodd" clip-rule="evenodd" d="M31.5717 43.3647L19.9223 41.9472L20.0076 41.2412L31.657 42.6587L31.5717 43.3647Z" fill="#0079FF"/>
<path fill-rule="evenodd" clip-rule="evenodd" d="M31.3809 44.9245L22.8864 43.8911L22.9432 43.4206L31.4378 44.4541L31.3809 44.9245Z" fill="#0079FF"/>
</g>
<path fill-rule="evenodd" clip-rule="evenodd" d="M25.1797 51.9873L27.0105 36.8431L51.4836 39.8425L49.6528 54.9866L25.1797 51.9873Z" fill="url(#paint6_linear_8_9706)"/>
<path fill-rule="evenodd" clip-rule="evenodd" d="M25.5566 51.3916L27.2654 37.2572L50.9093 40.1549L49.2006 54.2893L25.5566 51.3916Z" fill="white"/>
<g opacity="0.6">
<path fill-rule="evenodd" clip-rule="evenodd" d="M30.9693 40.9333L27.9818 40.5942L28.2662 38.3998L31.2538 38.7389L30.9693 40.9333Z" fill="#0079FF"/>
<path fill-rule="evenodd" clip-rule="evenodd" d="M41.4462 46.5326L29.915 45.2162L29.9976 44.5823L41.5288 45.8987L41.4462 46.5326Z" fill="#0079FF"/>
<path fill-rule="evenodd" clip-rule="evenodd" d="M41.2565 48.1164L32.8479 47.156L32.9025 46.7377L41.311 47.6982L41.2565 48.1164Z" fill="#0079FF"/>
</g>
<path opacity="0.2" fill-rule="evenodd" clip-rule="evenodd" d="M38.2938 23.3779C36.5767 23.3766 34.8761 23.7156 33.2891 24.3758C33.9072 24.2865 34.5309 24.2413 35.1554 24.2408C38.6366 24.2408 41.9753 25.6336 44.4368 28.1129C46.8984 30.5921 48.2813 33.9547 48.2813 37.4609V58.4452H51.4196V36.598C51.4196 29.2968 45.543 23.3779 38.2938 23.3779Z" fill="black"/>
<path fill-rule="evenodd" clip-rule="evenodd" d="M13.7772 54.249H51.4194V58.7448H9.21387C9.21387 56.2619 11.2569 54.249 13.7772 54.249V54.249Z" fill="#0079FF"/>
<path opacity="0.2" fill-rule="evenodd" clip-rule="evenodd" d="M13.7772 54.249H51.4194V58.7448H9.21387C9.21387 56.2619 11.2569 54.249 13.7772 54.249V54.249Z" fill="white"/>
<path fill-rule="evenodd" clip-rule="evenodd" d="M95.8434 10.279L95.4082 10.4902L95.458 10.4014L95.4199 10.413L95.4741 10.3737L101.338 0L104.336 2.54136L106.909 4.90795L106.171 5.26622L107 6.72112L95.8434 10.279Z" fill="url(#paint7_linear_8_9706)"/>
<path fill-rule="evenodd" clip-rule="evenodd" d="M104.045 2.69727L106.405 4.88217L95.7051 10.1903L101.399 2.90724L104.045 2.69727Z" fill="#0079FF"/>
<path opacity="0.2" fill-rule="evenodd" clip-rule="evenodd" d="M104.045 2.69727L106.405 4.88217L95.7051 10.1903L101.399 2.90724L104.045 2.69727Z" fill="black"/>
<path fill-rule="evenodd" clip-rule="evenodd" d="M101.279 0.599609L95.7051 10.4904L104.027 2.95603L101.279 0.599609Z" fill="#0079FF"/>
<path fill-rule="evenodd" clip-rule="evenodd" d="M106.405 6.69992L95.7051 10.1905L104.649 3.59668L106.405 6.69992Z" fill="#0079FF"/>
<path fill-rule="evenodd" clip-rule="evenodd" d="M17.7312 12.7789L18.4278 12.8881L18.3199 12.7848H18.3797L18.2864 12.7524L5.62816 0.599609L2.55613 5.50823L0 9.98603L1.18334 10.1719L0.658707 12.5975L17.7312 12.7789Z" fill="url(#paint8_linear_8_9706)"/>
<path fill-rule="evenodd" clip-rule="evenodd" d="M2.94628 5.65107L0.594727 9.75974L17.8336 12.5886L6.7305 4.7959L2.94628 5.65107Z" fill="#0079FF"/>
<path opacity="0.2" fill-rule="evenodd" clip-rule="evenodd" d="M2.94628 5.65107L0.594727 9.75974L17.8336 12.5886L6.7305 4.7959L2.94628 5.65107Z" fill="black"/>
<path fill-rule="evenodd" clip-rule="evenodd" d="M5.79923 1.19922L17.8338 12.5886L2.97266 5.6816L5.79923 1.19922Z" fill="#0079FF"/>
<path fill-rule="evenodd" clip-rule="evenodd" d="M1.48633 12.2767L17.8336 12.5883L2.57334 7.19336L1.48633 12.2767Z" fill="#0079FF"/>
<defs>
<linearGradient id="paint0_linear_8_9706" x1="61.5246" y1="107" x2="61.5246" y2="58.7451" gradientUnits="userSpaceOnUse">
<stop stop-color="#808080" stop-opacity="0.25"/>
<stop offset="0.54" stop-color="#808080" stop-opacity="0.12"/>
<stop offset="1" stop-color="#808080" stop-opacity="0.1"/>
</linearGradient>
<linearGradient id="paint1_linear_8_9706" x1="7.72171" y1="60.2452" x2="95.1109" y2="60.2452" gradientUnits="userSpaceOnUse">
<stop stop-color="#808080" stop-opacity="0.25"/>
<stop offset="0.54" stop-color="#808080" stop-opacity="0.12"/>
<stop offset="1" stop-color="#808080" stop-opacity="0.1"/>
</linearGradient>
<linearGradient id="paint2_linear_8_9706" x1="73.4142" y1="36.5662" x2="73.4142" y2="18.583" gradientUnits="userSpaceOnUse">
<stop stop-color="#808080" stop-opacity="0.25"/>
<stop offset="0.54" stop-color="#808080" stop-opacity="0.12"/>
<stop offset="1" stop-color="#808080" stop-opacity="0.1"/>
</linearGradient>
<linearGradient id="paint3_linear_8_9706" x1="42.0181" y1="43.3931" x2="43.3896" y2="32.2199" gradientUnits="userSpaceOnUse">
<stop stop-color="#808080" stop-opacity="0.25"/>
<stop offset="0.54" stop-color="#808080" stop-opacity="0.12"/>
<stop offset="1" stop-color="#808080" stop-opacity="0.1"/>
</linearGradient>
<linearGradient id="paint4_linear_8_9706" x1="49.3745" y1="45.8511" x2="50.746" y2="34.6779" gradientUnits="userSpaceOnUse">
<stop stop-color="#808080" stop-opacity="0.25"/>
<stop offset="0.54" stop-color="#808080" stop-opacity="0.12"/>
<stop offset="1" stop-color="#808080" stop-opacity="0.1"/>
</linearGradient>
<linearGradient id="paint5_linear_8_9706" x1="39.6823" y1="51.6605" x2="41.5414" y2="36.5152" gradientUnits="userSpaceOnUse">
<stop stop-color="#808080" stop-opacity="0.25"/>
<stop offset="0.54" stop-color="#808080" stop-opacity="0.12"/>
<stop offset="1" stop-color="#808080" stop-opacity="0.1"/>
</linearGradient>
<linearGradient id="paint6_linear_8_9706" x1="49.655" y1="54.9915" x2="51.514" y2="39.8462" gradientUnits="userSpaceOnUse">
<stop stop-color="#808080" stop-opacity="0.25"/>
<stop offset="0.54" stop-color="#808080" stop-opacity="0.12"/>
<stop offset="1" stop-color="#808080" stop-opacity="0.1"/>
</linearGradient>
<linearGradient id="paint7_linear_8_9706" x1="107.045" y1="7.08795" x2="101.057" y2="0.871891" gradientUnits="userSpaceOnUse">
<stop stop-color="#808080" stop-opacity="0.25"/>
<stop offset="0.54" stop-color="#808080" stop-opacity="0.12"/>
<stop offset="1" stop-color="#808080" stop-opacity="0.1"/>
</linearGradient>
<linearGradient id="paint8_linear_8_9706" x1="14.2864" y1="18.3883" x2="17.5735" y2="6.5778" gradientUnits="userSpaceOnUse">
<stop stop-color="#808080" stop-opacity="0.25"/>
<stop offset="0.54" stop-color="#808080" stop-opacity="0.12"/>
<stop offset="1" stop-color="#808080" stop-opacity="0.1"/>
</linearGradient>
</defs>
</svg>
