<svg width="24" height="24" viewBox="0 0 24 24" fill="none" xmlns="http://www.w3.org/2000/svg">
<path fill-rule="evenodd" clip-rule="evenodd" d="M2.94922 5.94464C2.94922 5.42293 3.37215 5 3.89386 5H20.0046C20.5263 5 20.9492 5.42293 20.9492 5.94464C20.9492 6.46635 20.5263 6.88928 20.0046 6.88928H3.89386C3.37215 6.88928 2.94922 6.46635 2.94922 5.94464ZM2.94922 11.6125C2.94922 11.0908 3.37215 10.6678 3.89386 10.6678H20.0046C20.5263 10.6678 20.9492 11.0908 20.9492 11.6125C20.9492 12.1342 20.5263 12.5571 20.0046 12.5571H3.89386C3.37215 12.5571 2.94922 12.1342 2.94922 11.6125ZM3.89386 16.3357C3.37215 16.3357 2.94922 16.7586 2.94922 17.2803C2.94922 17.802 3.37215 18.2249 3.89386 18.2249H13.0046C13.5263 18.2249 13.9492 17.802 13.9492 17.2803C13.9492 16.7586 13.5263 16.3357 13.0046 16.3357H3.89386Z" fill="white"/>
</svg>
