<svg width="16" height="16" viewBox="0 0 16 16" fill="none" xmlns="http://www.w3.org/2000/svg">
<g clip-path="url(#clip0_1946_584)">
<path d="M8.91018 3.04363C8.49783 3.3166 8.10042 3.63309 7.7334 4.00018C7.19261 4.5409 7.20716 4.57024 6.72361 5.12371M8.91018 3.04363L6.72361 5.12371M8.91018 3.04363C11.4938 1.3335 14.6668 1.3335 14.6668 1.3335C14.6668 1.3335 14.6668 4.50643 12.9566 7.09003M8.91018 3.04363L12.9566 7.09003M6.72361 5.12371L5.60004 4.00018L1.33337 6.13349L3.90396 8.70412M6.72361 5.12371L3.90396 8.70412M6.72361 5.12371C5.46808 6.56085 4.45035 7.93592 3.90396 8.70412M12.9566 7.09003C12.6836 7.50245 12.3671 7.89979 12 8.26681C11.4593 8.8076 11.43 8.79305 10.8765 9.2766M12.9566 7.09003L10.8765 9.2766M10.8765 9.2766L12 10.4002L9.86672 14.6668L7.29617 12.0963M10.8765 9.2766L7.29617 12.0963M10.8765 9.2766C9.43936 10.5321 8.06429 11.5499 7.29617 12.0963M3.90396 8.70412C3.62304 9.09905 3.46671 9.33354 3.46671 9.33354L6.66672 12.5335C6.66672 12.5335 6.90124 12.3772 7.29617 12.0963M3.90396 8.70412L7.29617 12.0963M3.06282 12.9074C3.32702 11.8383 3.817 11.399 4.19417 11.7761C4.57132 12.1532 4.13195 12.6432 3.06282 12.9074Z" stroke="white" stroke-width="1.65517" stroke-linecap="round" stroke-linejoin="round"/>
</g>
<defs>
<clipPath id="clip0_1946_584">
<rect width="16" height="16" fill="white"/>
</clipPath>
</defs>
</svg>
