<svg width="26" height="24" viewBox="0 0 26 24" fill="none" xmlns="http://www.w3.org/2000/svg">
<path d="M0.840838 12.2824C2.77957 10.4468 6.06051 11.1528 6.95531 13.5532C7.55184 15.1064 8.44664 16.5184 9.78885 17.7892C10.0871 18.0716 10.3854 18.354 10.6836 18.6364C12.9206 20.472 15.7542 21.178 18.5877 21.178C19.4825 21.178 19.9299 22.1664 19.3334 22.7312C19.0351 23.0136 18.5877 23.296 18.1403 23.4372C13.0698 24.8492 7.55184 23.5784 3.52524 19.9072C2.0339 18.4952 0.989972 16.942 0.244305 15.2476C-0.203096 14.118 -0.0539629 12.9884 0.840838 12.2824Z" fill="#0079FF"/>
<path d="M25.0005 11.7174C23.0617 13.553 19.7808 12.847 18.886 10.4466C18.2895 8.89339 17.3947 7.4814 16.0525 6.2106C15.7542 5.9282 15.456 5.6458 15.1577 5.3634C12.9207 3.52781 10.0871 2.82181 7.25361 2.82181C6.35881 2.82181 5.91141 1.83342 6.50795 1.26862C6.80621 0.986221 7.25362 0.703822 7.70102 0.562623C12.7716 -0.849372 18.2895 0.421424 22.3161 4.09261C23.8074 5.5046 24.8514 7.0578 25.597 8.75219C25.8953 9.88179 25.7462 11.0114 25.0005 11.7174Z" fill="#F43B51"/>
</svg>
