<svg width="4" height="14" viewBox="0 0 4 14" fill="none" xmlns="http://www.w3.org/2000/svg">
<path fill-rule="evenodd" clip-rule="evenodd" d="M0.333374 2.00016C0.333374 1.07969 1.07957 0.333496 2.00004 0.333496C2.92052 0.333496 3.66671 1.07969 3.66671 2.00016C3.66671 2.92064 2.92052 3.66683 2.00004 3.66683C1.07957 3.66683 0.333374 2.92064 0.333374 2.00016ZM0.333374 7.00016C0.333374 6.07969 1.07957 5.3335 2.00004 5.3335C2.92052 5.3335 3.66671 6.07969 3.66671 7.00016C3.66671 7.92064 2.92052 8.66683 2.00004 8.66683C1.07957 8.66683 0.333374 7.92064 0.333374 7.00016ZM2.00004 10.3335C1.07957 10.3335 0.333374 11.0797 0.333374 12.0002C0.333374 12.9206 1.07957 13.6668 2.00004 13.6668C2.92052 13.6668 3.66671 12.9206 3.66671 12.0002C3.66671 11.0797 2.92052 10.3335 2.00004 10.3335Z" fill="#4C84FF"/>
</svg>
