<svg width="24" height="24" viewBox="0 0 24 24" fill="none" xmlns="http://www.w3.org/2000/svg">
<rect x="2" y="2" width="20" height="20" rx="4" fill="#4C84FF"/>
<path fill-rule="evenodd" clip-rule="evenodd" d="M17.83 7.35005L9.67005 15.51C9.51415 15.6676 9.3017 15.7563 9.08005 15.7563C8.85839 15.7563 8.64595 15.6676 8.49005 15.51L6.17005 13.18C6.01249 13.0241 5.92383 12.8117 5.92383 12.59C5.92383 12.3684 6.01249 12.1559 6.17005 12C6.32595 11.8425 6.53839 11.7538 6.76005 11.7538C6.9817 11.7538 7.19415 11.8425 7.35005 12L9.08005 13.73L16.65 6.17005C16.8059 6.01249 17.0184 5.92383 17.24 5.92383C17.4617 5.92383 17.6741 6.01249 17.83 6.17005C17.9876 6.32595 18.0763 6.53839 18.0763 6.76005C18.0763 6.9817 17.9876 7.19415 17.83 7.35005Z" fill="white"/>
</svg>
