<svg width="24" height="24" viewBox="0 0 24 24" fill="none" xmlns="http://www.w3.org/2000/svg">
<path fill-rule="evenodd" clip-rule="evenodd" d="M5 4C4.44772 4 4 4.44772 4 5V19C4 19.5523 4.44772 20 5 20H19C19.5523 20 20 19.5523 20 19V5C20 4.44772 19.5523 4 19 4H5ZM2 5C2 3.34315 3.34315 2 5 2H19C20.6569 2 22 3.34315 22 5V19C22 20.6569 20.6569 22 19 22H5C3.34315 22 2 20.6569 2 19V5Z" fill="white"/>
<path fill-rule="evenodd" clip-rule="evenodd" d="M6.25 7C6.25 6.58579 6.58579 6.25 7 6.25H10C10.4142 6.25 10.75 6.58579 10.75 7V16C10.75 16.4142 10.4142 16.75 10 16.75H7C6.58579 16.75 6.25 16.4142 6.25 16V7ZM7.75 7.75V15.25H9.25V7.75H7.75Z" fill="white"/>
<path fill-rule="evenodd" clip-rule="evenodd" d="M13.25 7C13.25 6.58579 13.5858 6.25 14 6.25H17C17.4142 6.25 17.75 6.58579 17.75 7V12C17.75 12.4142 17.4142 12.75 17 12.75H14C13.5858 12.75 13.25 12.4142 13.25 12V7ZM14.75 7.75V11.25H16.25V7.75H14.75Z" fill="white"/>
</svg>
